<?xml version="1.0" standalone="no"?>
<!DOCTYPE svg PUBLIC "-//W3C//DTD SVG 20010904//EN"
 "http://www.w3.org/TR/2001/REC-SVG-20010904/DTD/svg10.dtd">
<svg version="1.0" xmlns="http://www.w3.org/2000/svg"
 width="260.000000pt" height="260.000000pt" viewBox="0 0 260.000000 260.000000"
 preserveAspectRatio="xMidYMid meet">
<metadata>
Created by potrace 1.11, written by Peter Selinger 2001-2013
</metadata>
<g transform="translate(0.000000,260.000000) scale(0.100000,-0.100000)"
fill="#000000" stroke="none">
<path d="M0 1300 l0 -1300 1300 0 1300 0 0 1300 0 1300 -1300 0 -1300 0 0
-1300z m1347 1141 c26 -10 107 -47 178 -81 72 -34 157 -75 190 -90 101 -47
216 -100 310 -145 50 -23 122 -57 160 -75 139 -64 190 -92 208 -112 16 -19 17
-64 17 -637 0 -555 -2 -619 -16 -640 -10 -14 -77 -52 -161 -92 -79 -38 -145
-69 -148 -69 -2 0 -78 -36 -170 -80 -92 -44 -168 -80 -170 -80 -1 0 -65 -30
-141 -66 -226 -108 -286 -134 -304 -134 -18 0 -78 26 -304 134 -76 36 -140 66
-141 66 -2 0 -78 36 -170 80 -92 44 -168 80 -170 80 -3 0 -69 31 -148 69 -84
40 -151 78 -161 92 -14 21 -16 85 -16 640 0 573 1 618 17 637 15 17 210 122
227 122 3 0 60 26 128 59 68 32 148 70 178 84 108 50 227 105 335 157 88 42
211 97 222 100 1 0 24 -9 50 -19z"/>
<path d="M1220 2218 c-230 -110 -332 -158 -335 -158 -2 0 -70 -32 -152 -71
-81 -39 -167 -80 -190 -90 -39 -16 -58 -39 -34 -39 9 0 59 -22 269 -121 239
-113 270 -127 454 -213 31 -14 62 -26 68 -26 6 0 37 12 68 26 184 86 204 95
457 214 212 100 257 120 266 120 24 0 5 23 -33 39 -24 10 -110 51 -191 90 -82
39 -150 71 -152 71 -2 0 -59 26 -127 59 -221 105 -278 131 -291 130 -6 0 -41
-14 -77 -31z"/>
<path d="M380 1242 l0 -468 83 -39 c45 -21 132 -62 192 -91 61 -28 146 -68
190 -89 44 -20 134 -62 200 -92 66 -31 126 -61 133 -66 7 -5 15 -8 17 -5 4 4
8 705 5 928 0 7 -201 110 -215 110 -2 0 -78 36 -170 80 -92 44 -168 80 -170
80 -1 0 -60 27 -129 60 -70 33 -129 60 -131 60 -3 0 -5 -211 -5 -468z"/>
<path d="M2150 1682 c-30 -15 -93 -45 -140 -66 -47 -22 -154 -73 -238 -113
-85 -40 -155 -73 -157 -73 -14 0 -215 -103 -215 -110 -3 -223 1 -924 5 -928 2
-3 10 0 17 5 7 5 67 35 133 66 66 30 156 72 200 92 44 21 130 61 190 89 61 29
147 70 193 91 l82 39 0 468 c0 257 -3 468 -7 467 -5 0 -33 -12 -63 -27z"/>
</g>
</svg>
